<?xml version="1.0" encoding="utf-8"?>
<!-- Generator: Adobe Illustrator 19.2.0, SVG Export Plug-In . SVG Version: 6.00 Build 0)  -->
<!DOCTYPE svg PUBLIC "-//W3C//DTD SVG 1.1//EN" "http://www.w3.org/Graphics/SVG/1.1/DTD/svg11.dtd" [
	<!ENTITY st0 "font-family:'GothamBold';">
	<!ENTITY st1 "font-size:500px;">
]>
<svg version="1.1" id="Layer_1" xmlns="http://www.w3.org/2000/svg" xmlns:xlink="http://www.w3.org/1999/xlink" x="0px" y="0px"
	 viewBox="0 0 1414 413" style="enable-background:new 0 0 1414 413;" xml:space="preserve">
<g>
	<text transform="matrix(1 0 0 1 -42 388)" style="&st0; &st1;">K</text>
	<text transform="matrix(1 0 0 1 562 388)" style="&st0; &st1;">V</text>
	<text transform="matrix(1 0 0 1 930 388)" style="&st0; &st1;">I</text>
	<text transform="matrix(1 0 0 1 1060 388)" style="&st0; &st1;">N</text>
	<g id="layer1">
		<path id="text8259" d="M533.3,0.6C532.1,0.2,517.8,0,490.2,0c-29.8,0-46.9,0.6-51.4,1.7c-17.3,4.5-29.3,15.1-35.9,31.8
			c-1.1,2.2-1.8,4.3-2.2,6.1c-1.1,4.1-1.7,24.9-1.7,62.5l-0.6,55.3l-0.6,2.8c-2.2,7.8-7,13.4-14.4,16.7c-3.3,1.9-11.6,2.8-24.9,2.8
			h-11.6c-21,0-33,0.7-35.9,2.2c-10.3,4.1-15.6,12.3-16,24.6c0,11.2,5.3,19.3,16,24.6c2.9,1.1,14.9,1.9,35.9,2.2
			c21,0,33.1,0.9,36.5,2.8c5.9,2.6,10.1,6.7,12.7,12.3c1.5,3.3,2.2,12.5,2.2,27.3l0.6,35.2v55.8l0.6,3.3c2.2,8.9,5.9,16.7,11,23.4
			c8.1,9.7,18.4,15.8,30.9,18.4l3.9,1.1h43.6h44.2l2.8-1.1c12.2-4.8,18.6-13.4,19.3-25.7c0-12.3-6.4-20.8-19.3-25.7l-2.2-0.6
			l-40.9-0.6h-41.4v-51.9c0-34.6-0.2-53.8-0.6-57.5c-0.7-6.3-2-12.1-3.9-17.3c-3.3-8.9-7.7-16.7-13.3-23.4l-2.2-3.3
			c0.4,0,1.3-1.1,2.8-3.3c7.7-9.7,12.9-20.6,15.5-32.9c1.1-5.6,1.7-27,1.7-64.2V53.6h41.4h40.9l2.2-1.1c8.1-2.2,13.8-7.1,17.1-14.5
			c2.2-4.5,2.9-9.3,2.2-14.5c-0.4-2.6-1.1-5.2-2.2-7.8C549.5,7.1,542.8,2,533.3,0.6"/>
	</g>
</g>
</svg>
