<?xml version="1.0" encoding="UTF-8" standalone="no"?>
<svg width="170px" height="180px" viewBox="0 0 170 180" version="1.1" xmlns="http://www.w3.org/2000/svg" xmlns:xlink="http://www.w3.org/1999/xlink">
    <!-- Generator: Sketch 41.1 (35376) - http://www.bohemiancoding.com/sketch -->
    <title>Group</title>
    <desc>Created with Sketch.</desc>
    <defs></defs>
    <g id="Page-1" stroke="none" stroke-width="1" fill="none" fill-rule="evenodd">
        <g id="Group" transform="translate(0.000000, 0.310958)">
            <path d="M47.905,79.633 C48.255,79.567 37.212,76.977 36.108,62.428 C34.653,43.272 44.741,44.331 47.757,47.836 L47.905,79.633" id="Fill-96" fill="#ECA587"></path>
            <path d="M125.19,78.149 C125.19,78.149 135.306,79.819 138.382,60.989 C141.46,42.157 131.347,43.518 128.05,46.567 L125.19,78.149" id="Fill-97" fill="#ECA587"></path>
            <path d="M66.114,96.697 L108.858,96.697 C105.911,106.086 104.788,126.144 112.116,132.179 C112.116,132.179 106.989,149.062 87.485,154.108 C67.983,149.062 62.854,132.179 62.854,132.179 C70.183,126.144 69.062,106.086 66.114,96.697" id="Fill-98" fill="#ECA587"></path>
            <path d="M44.134,54.063 C44.134,84.327 57.472,114.761 85.759,115.263 C115.472,115.79 130.087,84.327 130.087,54.063 C130.087,23.801 128.474,-0.091 87.11,0.323 C43.472,0.76 44.134,23.801 44.134,54.063" id="Fill-99" fill="#F4BCA2"></path>
            <path d="M0.079,178.507 C2.821,134.733 66.315,132.179 66.315,132.179 C70.188,146.11 84.901,147.485 86.978,147.606 C89.021,147.489 105.126,146.13 109.005,132.179 C109.005,132.179 167.671,137.618 169.88,178.507 L0.079,178.507" id="Fill-100" fill="#ECA587"></path>
            <path d="M61.315,132.179 C65.188,146.11 84.901,147.485 86.978,147.606 C89.021,147.489 110.126,146.13 114.005,132.179 C114.005,132.179 167.671,137.618 169.88,178.507 L0.079,178.507 C2.821,134.733 61.315,132.179 61.315,132.179 Z" id="Fill-101" fill="#6BC3C8"></path>
            <path d="M106.028762,46.244759 L106.028762,46.244759 C104.686762,46.244759 103.336762,46.169759 101.998762,46.259759 C97.3077616,46.574759 94.3327616,48.883759 94.0537616,52.986759 C93.7007616,58.212759 95.1597616,63.039759 99.0417616,66.797759 C101.823762,69.493759 105.389762,70.447759 109.250762,69.918759 C118.055762,68.716759 121.522762,62.909759 119.701762,52.795759 C119.196762,49.975759 117.213762,48.023759 114.459762,47.290759 C111.739762,46.567759 108.867762,46.463759 106.028762,46.244759 Z M67.8697616,46.109759 C65.7117616,46.163759 63.6707616,46.272759 61.7097616,46.651759 C56.2647616,47.704759 53.7727616,50.637759 53.5967616,56.058759 C53.5617616,57.120759 53.8527616,58.190759 53.8587616,59.258759 C53.9037616,67.948759 64.2177616,72.709759 71.8567616,68.805759 C77.4407616,65.949759 81.2177616,57.663759 79.6147616,51.643759 C78.9127616,49.001759 77.1257616,47.320759 74.4487616,46.793759 C72.2447616,46.362759 69.9857616,46.216759 67.8697616,46.109759 Z M68.2297616,42.545759 C69.4447616,42.531759 76.5617616,42.856759 80.1867616,45.367759 C80.6457616,45.684759 81.4757616,45.508759 82.1357616,45.510759 C85.4857616,45.523759 88.8367616,45.532759 92.1887616,45.504759 C92.9207616,45.498759 93.7827616,45.560759 94.3647616,45.224759 C100.246762,41.832759 106.578762,42.840759 112.803762,43.477759 C116.873762,43.896759 120.871762,44.953759 124.928762,45.550759 C126.834762,45.834759 128.200762,46.572759 128.424762,48.479759 C128.631762,50.254759 127.619762,51.444759 125.903762,52.021759 C123.862762,52.707759 123.125762,54.241759 123.026762,56.227759 C122.924762,58.206759 122.881762,60.197759 122.623762,62.157759 C121.944762,67.325759 119.176762,71.010759 113.963762,72.236759 C111.002762,72.933759 107.776762,73.243759 104.764762,72.902759 C97.3717616,72.071759 93.7077616,67.976759 92.3097616,59.790759 C92.0557616,58.323759 91.9387616,56.830759 91.6337616,55.376759 C91.1497616,53.065759 89.7037616,51.747759 87.2427616,51.713759 C84.7747616,51.680759 83.2977616,52.999759 82.7647616,55.276759 C82.3507616,57.044759 82.2097616,58.872759 81.8387616,60.652759 C79.6497616,71.154759 73.7337616,73.762759 63.8697616,72.744759 C54.9487616,71.822759 51.3487616,67.381759 51.4327616,58.423759 C51.4637616,55.309759 51.0807616,52.724759 47.5377616,51.484759 C46.7237616,51.198759 45.8467616,49.404759 46.0227616,48.492759 C46.2137616,47.465759 47.4267616,46.074759 48.4327616,45.843759 C51.6907616,45.093759 54.8817616,44.154759 58.1967616,43.618759 C61.4897616,43.090759 67.0147616,42.558759 68.2297616,42.545759 L68.2297616,42.545759 Z" id="Fill-87" fill="#121418"></path>
            <path d="M51.224,133.683 C57.993,133.103 61.315,132.179 61.315,132.179 C65.188,146.11 84.901,147.485 86.978,147.606 C89.021,147.489 110.126,146.13 114.005,132.179 C114.005,132.179 125.325,133.437 124.651,134.8 C119.491,145.226 107.062,153.579 84.993,153.507 C63.993,153.437 49.044,133.868 51.224,133.683" id="Fill-102" fill="#2EAD76"></path>
            <polygon id="Fill-104" fill="#2EAD76" points="30.966 178.771 138.966 178.771 138.966 173.771 30.966 173.771"></polygon>
        </g>
    </g>
</svg>